<?xml version="1.0" encoding="iso-8859-1"?>
<!-- Generator: Adobe Illustrator 19.0.0, SVG Export Plug-In . SVG Version: 6.00 Build 0)  -->
<svg version="1.1" id="Capa_1" xmlns="http://www.w3.org/2000/svg" xmlns:xlink="http://www.w3.org/1999/xlink" x="0px" y="0px"
	 viewBox="0 0 496 496" style="enable-background:new 0 0 496 496;" xml:space="preserve">
<path style="fill:#FFCB57;" d="M248,88c0-44.184-35.816-80-80-80S88,43.816,88,88c0,26.144,12.6,49.296,32,63.888V208h96v-56.112
	C235.4,137.296,248,114.144,248,88z"/>
<g>
	<path style="fill:#3F3A34;" d="M16,120c0-13.232,10.768-24,24-24h24V80H40C17.944,80,0,97.944,0,120v248h16V120z"/>
	<path style="fill:#3F3A34;" d="M456,80h-24v16h24c13.232,0,24,10.768,24,24v136h16V120C496,97.944,478.056,80,456,80z"/>
	<path style="fill:#3F3A34;" d="M152,448h144v-16H40c-13.232,0-24-10.768-24-24v-8h272v-16H0v24c0,22.056,17.944,40,40,40h96v32h-32
		v16h224v-16H152V448z"/>
	<path style="fill:#3F3A34;" d="M168,112c13.232,0,24-10.768,24-24s-10.768-24-24-24s-24,10.768-24,24S154.768,112,168,112z M168,80
		c4.416,0,8,3.584,8,8s-3.584,8-8,8s-8-3.584-8-8S163.584,80,168,80z"/>
	<path style="fill:#3F3A34;" d="M340,0c-37.496,0-68,30.504-68,68v220c0,4.416-3.584,8-8,8s-8-3.584-8-8v-32
		c0-13.232-10.768-24-24-24s-24,10.768-24,24v80c0,8.824-7.176,16-16,16s-16-7.176-16-16V216h48v-32h16v-16h-16v-12.224
		c20.392-16.808,32-41.28,32-67.776c0-48.52-39.48-88-88-88S80,39.48,80,88c0,26.496,11.608,50.968,32,67.776V168H96v16h16v32h48
		v120c0,17.648,14.352,32,32,32s32-14.352,32-32v-80c0-4.416,3.584-8,8-8s8,3.584,8,8v32c0,13.232,10.768,24,24,24s24-10.768,24-24
		V68c0-28.672,23.328-52,52-52s52,23.328,52,52v148h16V68C408,30.504,377.496,0,340,0z M124.816,145.504
		C106.496,131.728,96,110.768,96,88c0-39.704,32.296-72,72-72s72,32.296,72,72c0,22.768-10.496,43.728-28.816,57.504L208,147.896
		V168h-32v-40h-16v40h-32v-20.104L124.816,145.504z M128,184h80v16h-80V184z"/>
</g>
<path style="fill:#E56565;" d="M432,245.6V208h-64v37.6c-37.224,13.224-64,48.696-64,90.4v64c0,52.936,43.064,96,96,96
	s96-43.064,96-96v-64C496,294.296,469.224,258.824,432,245.6z M384,224h32v17.448c-5.216-0.88-10.536-1.448-16-1.448
	s-10.784,0.568-16,1.448V224z M400,256c44.112,0,80,35.888,80,80v24h-56v-40c0-10.416-6.712-19.216-16-22.528V272h-16v25.472
	c-9.288,3.312-16,12.112-16,22.528v40h-56v-24C320,291.888,355.888,256,400,256z M400,312c4.416,0,8,3.584,8,8v40h-16v-40
	C392,315.584,395.584,312,400,312z M400,480c-44.112,0-80-35.888-80-80v-24h160v24C480,444.112,444.112,480,400,480z"/>
<g>
</g>
<g>
</g>
<g>
</g>
<g>
</g>
<g>
</g>
<g>
</g>
<g>
</g>
<g>
</g>
<g>
</g>
<g>
</g>
<g>
</g>
<g>
</g>
<g>
</g>
<g>
</g>
<g>
</g>
</svg>
