<svg height="496pt" viewBox="-30 0 496 496" width="496pt" xmlns="http://www.w3.org/2000/svg"><path d="m265.878906 282.808594h-.0625c-1.335937 7.488281-7.847656 13.191406-15.71875 13.191406h-64c-7.882812 0-14.402344-5.6875-15.722656-13.183594h-.078125c-39 18.457032-64.199219 58.175782-64.199219 101.183594 0 61.761719 50.238282 112 112 112 61.757813 0 112-50.238281 112-112 0-43.015625-25.210937-82.734375-64.21875-101.191406zm0 0" fill="#f0bc5e"/><path d="m290.097656 152c0 39.765625-32.238281 72-72 72-39.765625 0-72-32.234375-72-72s32.234375-72 72-72c39.761719 0 72 32.234375 72 72zm0 0" fill="#f0bc5e"/><path d="m218.097656 144c-8.824218 0-16-7.175781-16-16s7.175782-16 16-16c8.824219 0 16 7.175781 16 16h16c0-14.863281-10.242187-27.289062-24-30.863281v-17.136719h-16v17.136719c-13.761718 3.574219-24 16-24 30.863281 0 17.648438 14.351563 32 32 32 8.824219 0 16 7.175781 16 16s-7.175781 16-16 16c-8.824218 0-16-7.175781-16-16h-16c0 14.863281 10.238282 27.289062 24 30.863281v17.136719h16v-17.136719c13.757813-3.574219 24-16 24-30.863281 0-17.648438-14.355468-32-32-32zm0 0"/><path d="m210.097656 0h16v32h-16zm0 0"/><path d="m104.957031 50.175781 11.3125-11.3125 22.625 22.628907-11.3125 11.3125zm0 0"/><path d="m297.289062 61.488281 22.625-22.625 11.316407 11.3125-22.628907 22.628907zm0 0"/><path d="m430.480469 376.574219c-39.039063-50.742188-94.167969-85.390625-156.382813-98.636719v-21.9375h16v-16h-13.808594c1.125-1.96875 2.621094-3.769531 4.542969-5.222656 26.222657-19.847656 41.265625-50.023438 41.265625-82.777344 0-28.535156-11.328125-55.152344-31.898437-74.945312-20.550781-19.78125-47.496094-30.054688-76.199219-28.976563-53.855469 2.066406-98.664062 47.609375-99.878906 101.523437-.753906 33.167969 14.632812 64.984376 41.136718 85.09375 1.957032 1.488282 3.476563 3.3125 4.621094 5.296876h-13.78125v16h16v21.945312c-62.21875 13.246094-117.34375 47.886719-156.386718 98.636719l-5.710938 7.425781 5.710938 7.425781c50.367187 65.476563 129.769531 104.574219 212.386718 104.574219 82.613282 0 162.015625-39.097656 212.382813-104.574219l5.710937-7.425781zm-265.550781-154.613281c-22.761719-17.28125-35.457032-43.511719-34.816407-71.992188 1.03125-45.617188 38.933594-84.152344 84.503907-85.898438 1.175781-.046874 2.34375-.070312 3.511718-.070312 22.886719 0 44.429688 8.65625 60.984375 24.585938 17.398438 16.75 26.984375 39.261718 26.984375 63.414062 0 27.695312-12.730468 53.222656-34.921875 70.015625-6.097656 4.625-10.238281 10.945313-12.039062 17.984375h-82.089844c-1.816406-7.039062-5.984375-13.390625-12.117187-18.039062zm93.167968 34.039062v24c0 4.40625-3.59375 8-8 8h-64c-4.410156 0-8-3.574219-8-7.96875v-24.03125zm-40 224c-76.699218 0-150.441406-35.832031-197.882812-96 36.753906-46.65625 88.128906-78.449219 145.984375-90.585938 4.3125 6.378907 11.625 10.585938 19.898437 10.585938h64c8.269532 0 15.574219-4.207031 19.894532-10.59375 57.855468 12.136719 109.230468 43.9375 145.984374 90.59375-47.441406 60.167969-121.183593 96-197.878906 96zm0 0"/><path d="m218.097656 320c-35.289062 0-64 28.710938-64 64s28.710938 64 64 64c35.285156 0 64-28.710938 64-64s-28.714844-64-64-64zm0 112c-26.472656 0-48-21.527344-48-48s21.527344-48 48-48c26.46875 0 48 21.527344 48 48s-21.53125 48-48 48zm0 0"/><path d="m218.097656 352c-17.648437 0-32 14.351562-32 32s14.351563 32 32 32c17.644532 0 32-14.351562 32-32s-14.355468-32-32-32zm0 48c-8.824218 0-16-7.175781-16-16s7.175782-16 16-16c8.824219 0 16 7.175781 16 16s-7.175781 16-16 16zm0 0"/></svg>