<?xml version="1.0" encoding="UTF-8" standalone="no"?>
<svg width="77px" height="68px" viewBox="0 0 77 68" version="1.1" xmlns="http://www.w3.org/2000/svg" xmlns:xlink="http://www.w3.org/1999/xlink">
    <!-- Generator: Sketch 42 (36781) - http://www.bohemiancoding.com/sketch -->
    <title>Continuous Delivery</title>
    <desc>Created with Sketch.</desc>
    <defs></defs>
    <g id="Page-1" stroke="none" stroke-width="1" fill="none" fill-rule="evenodd">
        <g id="Custom-Software" transform="translate(-834.000000, -1454.000000)" stroke="#3FC380" stroke-width="1.3" fill="#3FC380" fill-rule="nonzero">
            <g id="Continuous-Delivery" transform="translate(834.000000, 1451.000000)">
                <path d="M51.3333333,70.3557692 C48.125,70.3557692 45.5583333,67.7788462 45.5583333,64.5576923 C45.5583333,61.3365385 48.125,58.7596154 51.3333333,58.7596154 C54.5416667,58.7596154 57.1083333,61.3365385 57.1083333,64.5576923 C57.1083333,67.7788462 54.5416667,70.3557692 51.3333333,70.3557692 Z M51.3333333,60.0480769 C48.895,60.0480769 46.8416667,62.1096154 46.8416667,64.5576923 C46.8416667,67.0057692 48.895,69.0673077 51.3333333,69.0673077 C53.7716667,69.0673077 55.825,67.0057692 55.825,64.5576923 C55.825,62.1096154 53.7716667,60.0480769 51.3333333,60.0480769 Z" id="Shape"></path>
                <path d="M14.1166667,70.3557692 C10.9083333,70.3557692 8.34166667,67.7788462 8.34166667,64.5576923 C8.34166667,61.3365385 10.9083333,58.7596154 14.1166667,58.7596154 C17.325,58.7596154 19.8916667,61.3365385 19.8916667,64.5576923 C19.8916667,67.7788462 17.325,70.3557692 14.1166667,70.3557692 Z M14.1166667,60.0480769 C11.6783333,60.0480769 9.625,62.1096154 9.625,64.5576923 C9.625,67.0057692 11.6783333,69.0673077 14.1166667,69.0673077 C16.555,69.0673077 18.6083333,67.0057692 18.6083333,64.5576923 C18.6083333,62.1096154 16.555,60.0480769 14.1166667,60.0480769 Z" id="Shape"></path>
                <path d="M64.4233333,54.8942308 L1.28333333,54.8942308 C0.898333333,54.8942308 0.641666667,54.6365385 0.641666667,54.25 C0.641666667,53.8634615 0.898333333,53.6057692 1.28333333,53.6057692 L63.7816667,53.6057692 L70.1983333,5.15961538 C70.1983333,4.90192308 70.455,4.64423077 70.84,4.64423077 L75.7166667,4.64423077 C76.1016667,4.64423077 76.3583333,4.90192308 76.3583333,5.28846154 C76.3583333,5.675 76.1016667,5.93269231 75.7166667,5.93269231 L71.4816667,5.93269231 L65.065,54.3788462 C64.9366667,54.6365385 64.68,54.8942308 64.4233333,54.8942308 Z" id="Shape"></path>
                <path d="M34.65,47.1634615 L3.85,47.1634615 C3.465,47.1634615 3.20833333,46.9057692 3.20833333,46.5192308 L3.20833333,33.6346154 C3.20833333,33.2480769 3.465,32.9903846 3.85,32.9903846 L34.65,32.9903846 C35.035,32.9903846 35.2916667,33.2480769 35.2916667,33.6346154 L35.2916667,46.5192308 C35.2916667,46.9057692 35.035,47.1634615 34.65,47.1634615 Z M4.49166667,45.875 L34.0083333,45.875 L34.0083333,34.2788462 L4.49166667,34.2788462 L4.49166667,45.875 Z" id="Shape"></path>
                <path d="M26.95,34.2788462 L8.98333333,34.2788462 C8.59833333,34.2788462 8.34166667,34.0211538 8.34166667,33.6346154 L8.34166667,23.3269231 C8.34166667,22.9403846 8.59833333,22.6826923 8.98333333,22.6826923 L26.95,22.6826923 C27.335,22.6826923 27.5916667,22.9403846 27.5916667,23.3269231 L27.5916667,33.6346154 C27.5916667,34.0211538 27.335,34.2788462 26.95,34.2788462 Z M9.625,32.9903846 L26.3083333,32.9903846 L26.3083333,23.9711538 L9.625,23.9711538 L9.625,32.9903846 Z" id="Shape"></path>
                <path d="M55.1833333,47.1634615 L34.65,47.1634615 C34.265,47.1634615 34.0083333,46.9057692 34.0083333,46.5192308 L34.0083333,10.4423077 C34.0083333,10.0557692 34.265,9.79807692 34.65,9.79807692 L55.1833333,9.79807692 C55.5683333,9.79807692 55.825,10.0557692 55.825,10.4423077 L55.825,46.5192308 C55.825,46.9057692 55.5683333,47.1634615 55.1833333,47.1634615 Z M35.2916667,45.875 L54.5416667,45.875 L54.5416667,11.0865385 L35.2916667,11.0865385 L35.2916667,45.875 Z" id="Shape"></path>
            </g>
        </g>
    </g>
</svg>