<?xml version="1.0" encoding="iso-8859-1"?>
<!-- Generator: Adobe Illustrator 19.0.0, SVG Export Plug-In . SVG Version: 6.00 Build 0)  -->
<svg version="1.1" id="Capa_1" xmlns="http://www.w3.org/2000/svg" xmlns:xlink="http://www.w3.org/1999/xlink" x="0px" y="0px"
	 viewBox="0 0 512 512" style="enable-background:new 0 0 512 512;" xml:space="preserve">
<g>
	<path style="fill:#FFE2C5;" d="M408.755,320.542c-4.329,0-7.837-3.509-7.837-7.837V237.62H253.485v68.815
		c0,4.328-3.509,7.837-7.837,7.837c-4.328,0-7.837-3.509-7.837-7.837v-76.652c0-4.328,3.509-7.837,7.837-7.837h163.107
		c4.329,0,7.837,3.509,7.837,7.837v82.921C416.592,317.033,413.083,320.542,408.755,320.542z"/>
	<path style="fill:#FFE2C5;" d="M328.714,237.62c-4.329,0-7.837-3.509-7.837-7.837V127.757c0-4.328,3.508-7.837,7.837-7.837
		s7.837,3.509,7.837,7.837v102.026C336.55,234.111,333.043,237.62,328.714,237.62z"/>
</g>
<path style="fill:#D8D8D8;" d="M300.852,298.922v175.396l-276.276-1.232V298.922c0-12.214,9.9-22.121,22.121-22.121h232.035
	C290.947,276.802,300.852,286.708,300.852,298.922z"/>
<path style="fill:#F9572B;" d="M48.234,422.515v-102.32c0-8.911,7.223-16.134,16.134-16.134h196.691
	c8.911,0,16.134,7.223,16.134,16.134v102.32c0,8.911-7.223,16.134-16.134,16.134H64.369
	C55.457,438.649,48.234,431.425,48.234,422.515z"/>
<g>
	<path style="fill:#424C59;" d="M325.429,459.424c0,11.536-4.842,21.937-12.606,29.289c-7.225,6.847-16.989,11.045-27.728,11.045
		H40.333c-11.138,0-21.219-4.516-28.519-11.815C4.516,480.642,0,470.561,0,459.424H325.429z"/>
	<path style="fill:#424C59;" d="M408.755,284.115h78.058c13.91,0,25.186,11.277,25.186,25.186v162.776
		c0,13.91-11.277,25.186-25.186,25.186h-78.058c-13.91,0-25.186-11.277-25.186-25.186V309.303
		C383.568,295.392,394.845,284.115,408.755,284.115z"/>
</g>
<polyline style="fill:#FCC63F;" points="512,309.303 383.568,309.303 383.568,472.078 512,472.078 "/>
<path style="fill:#45B8C4;" d="M464.753,133.859c0,22.392-18.16,40.542-40.553,40.542H226.713c-33.604,0-60.834-27.23-60.834-60.824
	c0-12.257,3.615-23.657,9.853-33.207c10.846-16.624,29.633-27.627,50.981-27.627c0.554,0,1.118,0.01,1.661,0.031
	c0.115-0.01,0.24,0,0.355,0c10.104,0.345,19.581,3.145,27.857,7.826c0.021-0.031,0.031-0.063,0.042-0.094
	c8.673-19.571,24.858-35.067,44.899-42.81l0.01-0.01c9.07-3.521,18.934-5.444,29.257-5.444c10.125,0,19.822,1.86,28.756,5.256
	c0.188,0.063,0.366,0.125,0.543,0.199c30.292,11.755,51.775,41.18,51.775,75.63c0,0.648,0,1.285-0.021,1.923
	c3.897-1.243,8.046-1.923,12.351-1.923C446.592,93.328,464.753,111.477,464.753,133.859z"/>
<g>
	<path style="fill:#239999;" d="M258.86,174.402h-32.152c-33.594,0-60.834-27.23-60.834-60.824c0-12.257,3.615-23.657,9.864-33.207
		c10.846-16.624,29.623-27.627,50.97-27.627c0.564,0,1.118,0.01,1.661,0.031c0.115-0.01,0.251,0,0.366,0
		c4.838,0.167,9.53,0.899,14.012,2.132c-14.514,3.971-26.854,13.187-34.868,25.464c-6.238,9.55-9.864,20.95-9.864,33.207
		C198.015,147.171,225.256,174.402,258.86,174.402z"/>
	<path style="fill:#239999;" d="M359.552,17.499c-18.108-6.363-80.562,9.812-80.562,63.258c-0.021,0-8.37-20.25-22.361-20.25
		c8.673-19.571,24.858-35.067,44.899-42.81l0.01-0.01c9.07-3.521,18.934-5.444,29.257-5.444
		C340.921,12.243,350.618,14.103,359.552,17.499z"/>
</g>
<g>
</g>
<g>
</g>
<g>
</g>
<g>
</g>
<g>
</g>
<g>
</g>
<g>
</g>
<g>
</g>
<g>
</g>
<g>
</g>
<g>
</g>
<g>
</g>
<g>
</g>
<g>
</g>
<g>
</g>
</svg>
