<?xml version="1.0"?>
<svg xmlns="http://www.w3.org/2000/svg" viewBox="0 0 64 64" width="512" height="512"><circle cx="57" cy="18" fill="#8087c4" r="3"/><circle cx="33" cy="15" fill="#8087c4" r="3"/><circle cx="21" cy="59" fill="#8087c4" r="3"/><circle cx="17" cy="45" fill="#16f465" r="2"/><circle cx="22" cy="19" fill="#16f465" r="4"/><circle cx="14" cy="30" fill="#60d4ef" r="6"/><circle cx="46" cy="13" fill="#16f465" r="5"/><circle cx="9" cy="9" fill="#5358a1" r="7"/><circle cx="25" cy="6" fill="#17afdc" r="4"/><path d="m33 14a2.99121 2.99121 0 0 1 2.81628 2 3.0002 3.0002 0 1 0 -5.63256 0 2.99121 2.99121 0 0 1 2.81628-2z" fill="#5358a1"/><path d="m57 15a2.98856 2.98856 0 0 0 -2.55438 1.44562 2.98528 2.98528 0 0 1 4.10876 4.10876 2.99263 2.99263 0 0 0 -1.55438-5.55438z" fill="#5358a1"/><path d="m22 61a2.98528 2.98528 0 0 1 -2.55438-4.55438 2.99263 2.99263 0 1 0 4.10876 4.10876 2.97327 2.97327 0 0 1 -1.55438.44562z" fill="#5358a1"/><path d="m16 45a1.99523 1.99523 0 0 1 1.5-1.92926 2.0002 2.0002 0 1 0 0 3.85852 1.99528 1.99528 0 0 1 -1.5-1.92926z" fill="#24db6a"/><circle cx="5" cy="22" fill="#24db6a" r="2"/><path d="m19 21a3.98873 3.98873 0 0 1 6.92877-2.70685 3.99455 3.99455 0 1 0 -6.85754 3.4137 3.99624 3.99624 0 0 1 -.07123-.70685z" fill="#24db6a"/><circle cx="36" cy="5" fill="#5358a1" r="3"/><path d="m46 11a4.98325 4.98325 0 0 1 4.74561 3.5 4.94612 4.94612 0 0 0 .25439-1.5 5 5 0 0 0 -10 0 4.94612 4.94612 0 0 0 .25439 1.5 4.98325 4.98325 0 0 1 4.74561-3.5z" fill="#24db6a"/><circle cx="58" cy="6" fill="#17afdc" r="4"/><path d="m11 31a6 6 0 0 1 6-6c.1156 0 .22845.01086.34247.01733a5.99729 5.99729 0 1 0 -3.68494 10.96534 5.99331 5.99331 0 0 1 -2.65753-4.98267z" fill="#17afdc"/><circle cx="7" cy="42" fill="#5358a1" r="4"/><circle cx="8" cy="56" fill="#17afdc" r="6"/><path d="m43 30 2.833 9.167h9.167l-7.416 5.666 2.832 9.167-7.416-5.666-7.416 5.666 2.832-9.167-7.416-5.666h9.167z" fill="#f4393d"/><g fill="#ffd700"><path d="m42 24h2v3h-2z"/><path d="m42 59h2v3h-2z"/><path d="m42 24h2v3h-2z"/><path d="m42 59h2v3h-2z"/><path d="m53.87408 29.62584h3.00037v1.99979h-3.00037z" transform="matrix(.70710678 -.70710678 .70710678 .70710678 -5.43692 48.12559)"/><path d="m29.12555 54.37437h3.00037v1.99979h-3.00037z" transform="matrix(.70710678 -.70710678 .70710678 .70710678 -30.18545 37.87441)"/><path d="m53.87408 29.62584h3.00037v1.99979h-3.00037z" transform="matrix(.70710678 -.70710678 .70710678 .70710678 -5.43692 48.12559)"/><path d="m29.12555 54.37437h3.00037v1.99979h-3.00037z" transform="matrix(.70710678 -.70710678 .70710678 .70710678 -30.18545 37.87441)"/><path d="m59 42h3v2h-3z"/><path d="m24 42h3v2h-3z"/><path d="m59 42h3v2h-3z"/><path d="m24 42h3v2h-3z"/><path d="m54.37437 53.87408h1.99979v3.00037h-1.99979z" transform="matrix(.70710678 -.70710678 .70710678 .70710678 -22.93677 55.37427)"/><path d="m29.62584 29.12555h1.99979v3.00037h-1.99979z" transform="matrix(.70710678 -.70710678 .70710678 .70710678 -12.68559 30.62573)"/><path d="m54.37437 53.87408h1.99979v3.00037h-1.99979z" transform="matrix(.70710678 -.70710678 .70710678 .70710678 -22.93677 55.37427)"/><path d="m29.62584 29.12555h1.99979v3.00037h-1.99979z" transform="matrix(.70710678 -.70710678 .70710678 .70710678 -12.68559 30.62573)"/></g></svg>
